<?xml version="1.0" encoding="utf-8"?>
<!-- Generator: Adobe Illustrator 19.1.0, SVG Export Plug-In . SVG Version: 6.00 Build 0)  -->
<svg version="1.1" xmlns="http://www.w3.org/2000/svg" xmlns:xlink="http://www.w3.org/1999/xlink" x="0px" y="0px"
	 viewBox="0 0 420.9 502.7" style="enable-background:new 0 0 420.9 502.7;" xml:space="preserve">
<style type="text/css">
	.st0{fill:#F2F2F2;}
	.st1{fill:#CCCCCC;}
	.st2{fill:#FFFFFF;}
	.st3{fill:none;stroke:#ED342F;stroke-width:2;stroke-miterlimit:10;}
	.st4{fill:#ED342F;}
</style>
<g id="Layer_2">
</g>
<g id="Layer_1">
	<polygon class="st0" points="128.5,100.7 128.5,100.7 128.5,100.7 	"/>
	<polygon class="st0" points="320.9,424.8 321.2,425.2 321.9,424.6 322.3,423.8 322.7,422.9 322,423.4 	"/>
	<polygon class="st0" points="361,357.9 360.4,357.8 360.6,358.2 	"/>
	<path class="st0" d="M131.1,99.8l0.3-0.3c-1,0.4-2,0.8-2.9,1.1l1.9-0.4L131.1,99.8z"/>
	<path class="st0" d="M354.3,395.6C354.3,395.6,353.9,395.9,354.3,395.6L354.3,395.6z"/>
	<path class="st0" d="M14.2,328.8l-0.2-0.6l-0.8-3.2l-0.5-1.1c0.4,1.3,0.8,2.7,1,3.9L14.2,328.8z"/>
	<polygon class="st0" points="348,375.9 348.3,375.7 348,375.9 	"/>
	<path class="st0" d="M351.3,399.6c0.4-0.9,1.1-1.4,1.5-2.3l-1.1,1.4L351.3,399.6z"/>
	<polygon class="st0" points="359.9,356.5 359.8,356.6 360.2,357.3 	"/>
	<path class="st0" d="M341.3,320.6l-0.8-1l-0.1-1.6l-1-1.4l-0.3-2.5c-0.4-1.9-0.4-4.1-0.5-5.6l1-3l-0.4-1.3l-0.6-2.2l-0.9-0.4
		l-1.8-0.2l-0.9-0.4l-2.4-0.3l-2.8-4.4l-2.7-1.7l14.1,26.8L341.3,320.6z"/>
	<g>
		<path class="st0" d="M294.3,447.8c-3.2,0.6-6.2,1.5-9.4,2.5l1.3,5.6c12.2-6.4,23.5-14.1,33.9-22.8c-7.2,5.5-14.7,10.1-22.9,13.6
			L294.3,447.8z"/>
		<path class="st0" d="M329.2,422.8l-0.6-0.1l-0.3-0.3l-1.6,0.7l-1,0.2l-1.4,1l-0.3,0.3l-0.7,0.5l-0.3,0.3l-0.7,0.5l-0.3-0.3
			l-0.6-0.1l-0.3-0.3l-0.3,0.3l-1,0.2c-0.1,0.6-0.4,0.9-0.5,1.5l-0.8,1.1l-0.8,1.1l0.3,0.3l1.6-0.1l1.2,0.2l1.3-0.4l0.6,0.1l0.7-0.5
			l0.6,0.1l0.6,0.1l0.6,0.1l1-0.8c2.5-2.4,5.3-4.5,7.5-7.3l-2.2,0.6L329.2,422.8z"/>
		<path class="st0" d="M345.8,378.1l-1.4,1l-0.3,0.3c0.4-0.9,0.2-1.8,0.7-2.7l1.9-4.7l-0.3,0.3l-1.4,3.2c-1.4,3.8-2.9,7.6-4.7,11.7
			l-1.1,3.6l-0.3,0.3l-1.5,1.7l-0.8,3.3l-0.1,0.6l-1.6,2.9l-0.3,0.3c-1.5,1.7-3,3.9-4.2,5.9c-0.1,0.6-0.5,1.5-0.3,2.4l-2,3.1
			l-1.9,2.5l-0.5,1.5l-0.8,3.3c-0.5,1.5-1.6,2.9-2.1,4.3l0,0l0.7-0.5l0.4-0.9l1.5-1.7l0.8-1.1l0.8-1.1l0.7-0.5l1.5-1.7l1-0.8
			l0.4-0.9l0.8-1.1l0.2-1.2l1.5-2.3l1.5-2.3l0.9-2.3l0.1-0.6l1.6-2.9l1.2-2l1.1-1.4l1.7-3.5l0.5-1.5l-0.2-1l0.9-1.7l0.7-0.5l0.2-1.2
			l0.1-0.6l0.9-2.3l1-3l0.9-2.3l-0.5-0.7l1.1-1.4l0.4-0.9l0.8-1.1l-0.7,0.5L345.8,378.1z"/>
		<path class="st0" d="M360.4,382.3l-0.8,1.1l-0.3-0.3l-0.5,1.5l-0.7,0.5c-0.9,1.7-1.4,3.2-2.5,4.6l-0.1,0.6l-0.4,0.9l-0.5,1.5
			l-0.8,1.1l-0.4,0.9l-0.4,0.9l-0.4,0.9c-0.1,0.6-0.8,1.1-0.9,1.7l1.2-2l1.1-1.4l0.3-0.3l-0.4,0.9c1.2-2,2.7-3.7,3.5-5.4
			c0.9-2.3,2.1-4.3,3.1-6.7l-0.3,0.3L360.4,382.3z"/>
		<path class="st0" d="M357.9,337.4l-0.7,0.5l-1.6,0.1l0.2-1.8l0.1-0.6l-0.5-0.7l-0.5-0.7l-1.7-0.9l0,2.2l-0.9-0.4
			c-0.3-0.3-0.3-0.3-0.5-0.7l-0.1-1.6l-0.3,0.3l-0.6,2.1l-0.2,1.8l-0.9,0.2l0,0l0,2.2l0.1,1.6l-0.9,1.7l-1-2l-0.2,1.8l-0.4-1.3l-1,3
			l-0.8-1l-0.6-2.2l0.7-2.7l0.6-2.1c0.2-1.2,0.1-2.8,0.2-4l0.3-0.7l0.1-0.2l-0.3-0.3l1-0.2l-0.1-1.6l0.2-1.8l0.9-1.7l0.7-0.5
			l0.1-0.6l-0.3-0.3l0.5-1.5c-0.4-1.3-0.6-2.2-1.1-3.5l-0.4-1.9l-1-2l-0.2-3.1l0.6,0.1l-0.1-1.6l0.4-0.9l-0.4-1.3l-1,0.8l0.2-1.2
			l0.4-0.9l0.6,0.1l-0.7-1.6l-1.5-0.5l-0.5,1.5l-0.7,0.5l-0.2,1.8l0.5,2.9l-0.4,3l0.4,4.1l1,1.4l0.2,1l-0.6-0.1
			c0.4,1.3,0.9,2.6,1,4.2l0.3,2.5l-0.1,0.6l-0.7,0.5l0-2.2l-0.7-1.6l-1.1,0.8l-0.3,0.2l0.4,1.9l-0.8,1.1l-0.9-0.4l-2.1,1.6l-1.7-0.9
			c0.3-0.3,0.1-0.6,0.4-0.9l1.4-1l0.3-0.3c0.2-1.2,0.3-2.4,0.8-3.9l-0.2-1l0.2-1.1l-14.1-26.8l-0.4-0.3l-1.1,1.4l-0.9,1.7l-2.8-0.1
			l-2.5-1.9l-0.7,0.5l-2.2,0l-2,1l-0.3,2.4l-1.8-0.2l-1.4,1l-2-1.2l-2.5,0.3c-1.3-1.7-2.6-3.5-4.3-4.9l-2.1-0.6l-0.3-0.3l-0.8-1
			l-0.1-1.6l0.6-2.1l-1.2-2.3l-1.2-0.2l-0.7-1.6l-1.4-1.1l1.7-1.3l1.1-1.4l-0.8-1l0.2-1.2l1.4-1l1.2,0.2l1-0.8l1.6-0.7l0.8-1.1
			l0.2-1.2l0.4-0.9l1.5-1.7l0.2-1.8l3.8,1.4l1.8,3l2.1,2.8l1.5,2.7l1.7,1.5l2.6,3.5l1.9-0.4l0.3-0.4l3-3.8l0-4.3l0.2-3.4l-1.9-4
			l0.9-1.7l2.5,1.9l2.3,3.7l1.4-3.2l0.9,2.6l4.6,2.5l1.7-1.3c1.1,0.8,2,1.2,3.1,2l1.2,0.2l3.1-2.4l2.3,0.9l1,1.4l0.3-0.3l1.4,1.1
			l0.2,1l1.6-0.1l0.2-1.2l-0.5-0.7l0-2.2l0.9-2.3l0.3-0.3l0.7-0.5l1.4,1.1l1-0.2l1.2,0.2l-0.5,1.5L355,272l-0.1,0.6l0.4,1.3
			l-0.7,0.5l-0.5-0.7l-1.6,0.7l-0.2,1.8l-0.4,0.9l1,2l-0.4,0.9l1.4,1.1l1-0.2l0.9,2.6l0.1,1.6l1.2,0.2c1.5,0.5,2.7,0.7,3.8,1.4
			l0.7,1.6l-0.1,0.6l1,1.4l0.4-0.9l1.7,0.9l1.6-2.9l0.6-2.1l0.8-1.1l1.2,0.2l0.2,3.1l0.5,0.7c0.2-1.2,0.9-2.3,1.1-3.6l-0.6-0.1
			l-0.4-1.9l0.2-1.8l1.5,0.5l1.1,0.8l1,1.4l1.1,0.8l1-0.8l-0.6-2.2l-1.7-1.5l-1.5-0.5l-1.7-0.9l0-2.2l-0.7-1.6l0.7-2.7l-0.1-2.3
			l-2.7-3.5l-1.4,2.4l0.3,2.5l0.9,2.6l-1.8,1.9l-1.5-0.5l-1.8,4.1l-1.5,1.7l-1.3-1.7l-1.1,1.4l-1.7-1.5l0.4-3
			c0.1-2.8-0.1-5.9,0.3-8.9l-0.3-2.5l-3.5,0.5l-2-1.2l-1.4-3.3l0.4-3l1.4-6l1.6-0.1l3.5,1.3l-30.8-39.8c-0.6-0.4-1.2-0.9-1.9-1.3
			c-1.1-2-2.2-3.6-3.4-5.4l-24.6-31.8l-0.4,0l-3.7-2.1l-1.1,1.4c-1.6,0.1-3.4-0.2-4.9-0.1l-1.8-2.4l-0.2-3.1l-2.6-3.5l0-2.2l1.5-1.7
			l1.3-2l-15.7-20.3l-0.5-0.1l0-0.5l-1.6-2.1l-0.3,0.8l-0.7,0.5l-1.9-4l-0.3-1.5l-3.5-4.6l0,0.3l-0.5,1.5l-0.7,0.5l1.5,2.7l-2.5,0.3
			l-3.2,0.8l0.4,1.3l-0.8,1.1l3.1,2l3.8,1.4l1.7,0.9l-1.5,1.7c-1.1,1.4-2.6,3.1-3.8,5.1l-2.1-0.6l0.3,2.5l-0.2,1.8l1.1,2.9l-0.2,1.2
			l-1.7,1.3l0.7,1.6l-0.2,0.3l-0.3,0.5l-2.6,0.9c-1.1-0.8-2.6-1.3-3.7-2.1l-3.1-2.6l-3.7-2.1l-2.4-3.1l-1.9-4l-1.8-2.4l-1.3-1.7
			l-3-1l-2.5-1.9c-3-1-6.3-1.8-9.5-3.1l1.7,1.5l5.3,2l4.8,3.4l2.1,2.8l-0.2,1.8l-3.2-1.4l-2.7,1.5l-1.7,1.3l0.5,2.9l2.4,3.1l4.5,0.9
			l-1.6,0.7l0.1,1.6l-4.3-2.7l-4.4-3.7l-2.3-1.5l-3.5-1.7l-0.7-1.6l2.2-0.6l4.6,2.5l-2.1-2.8l-1.6-2.1l-0.7,0.5l-2.9-1.6
			c-1.4-1.1-2.8-2.2-4.2-3.4c-0.7-0.1-1.4-0.3-2-0.5L247.6,296l1.8-0.3l0.4-0.9l2.2-0.6l2.8,0.1l0.9,0.4l1.9-0.4l1.4-1l2.2-0.6
			l2.3,0.9l3.5-0.5l1.8,0.2l2.2,2.2l3,0.4l1.5,0.5l3.4,0.2l2.6-3.1l2.6-0.9l1.4-1l2.8,0.1l2.6,1.3l2.3,0.9l3.2-0.8l1.6-0.7l1.3,1.7
			l0.3,2.5l1.9,1.8l1.5,2.7l0.8,1l2.7,0.7l2.5,1.9l1.8,0.2l2.3,1.5c2.2,2.2,4.1,4,6.3,6.1l0.4,1.3l2.3,0.9l1.6,2.1l0.4,1.3l1.4,1.1
			l2.3,0.9l0.7,1.6l-0.5,1.5l2.1,0.6l-0.1,0.6l-1.6,0.1l-0.8,1.1l-0.2,1.2l-1.8,1.9l-2.2,0l-0.9,1.7l0.8,1l-0.5,1.5l0.2,1l1.1,2.9
			l0.9,0.4l1,2l1.4,3.3l-1,3l1,2l1.4,3.3l1.1,3.5l1.2,0.2l1.3-0.4l1.3-2.6l1-0.8l1.9-0.4l1.1,0.8l1.2,2.3l-0.2,1.8l0.5,0.7l0.2,1
			l1,1.4l-0.2,1.2l1.7,1.5c0.7,1.6,1.1,2.9,1.5,4.8l1.6-0.1l1-0.2l1.1,0.8l0.8,1l-0.5,1.5l0.7-0.5l0.4,1.3l0.8,1l1-0.2l0.7-0.5
			l1-0.8l1.5-1.7l0.7-0.5l1.8-1.9l1.5-1.7l0.9-2.3l0.8-1.1l0.5-1.5l0.7-0.5l-0.2-0.3l-0.1,0l-0.2-0.5l-0.4-0.7l-1.3,1l-1.7-0.9
			l-0.5-3.5l-1-1.4l-1,0.8l-0.9-0.4l-0.3-2.5l-1.1-0.8l0.8-3.3l0-2.2l0.1-0.1l1.4-1.5l0-2.2l2.7-1.5l1.7,1.5l1.5-1.7l-0.7,0.5
			L357.9,337.4z M333.3,254.8l-1.5-2.7l-0.2-1l1.3-0.4l-0.2-1l-1.6,0.1l1.2-2l0-2.2l2.1-1.6l1.9-0.4l1,1.4l1.9,1.8l-2.9,0.5l1.7,1.5
			l1.6,2.1l-1.1,1.4l-2.2,0.6l1.6,2.1l-0.3,4.6l0.7,1.6l-0.5,3.6l-0.2,1.2l1.5,2.7l-1.1,1.4l-1.2-0.2l-0.2,1.8l-2.1-0.6l-1.8-2.4
			l-3.1-2.6l-0.4-1.3l-1.8-0.2l-1.3-1.7l-1.5-0.5l-0.4-1.3l3.6,0.5l1.7,1.5l-2.2-4.3l0.2-1.2l2,1.2l0-2.2l1.4-1l2.1,2.8l0.8-1.1
			L333.3,254.8z M322.7,248.7l0.8-3.3l3,1l1.8,0.2l1,1.4l0.8,3.2l-1.6,0.7l-0.9,1.7l-2.2,0.6l-3.7-2.1l-1.8-3L322.7,248.7z
			 M244.7,158.3l1.7,0.9l0.4,1.3l-1.5-0.5l0.4,1.9l1.1,0.8l0.6,2.2l-2.2,0l1.4,1.1l-1,0.8l-1.1,1.4l-2.6,0.9l-0.8-1l-0.4-1.3
			l2.5-0.3l0.1-0.6l-3.8-1.4l-0.8-1l2.3,0.9l-0.6-2.2l-1.6-2.1l-2.3-3.7l0.7-0.5l1.7,0.9l-0.7-1.6l2.6,1.3l5.5,0.7l2.1,0.6l2,1.2
			l0.5,0.7C248.9,158.9,246.8,158.9,244.7,158.3z M336.7,329.5l-0.2,1.2l-1,0.8l-0.6-2.2l-0.8-1l-0.8-3.2l0.8-1.1l1.6,2.1
			c1.1,0.8,1.9,1.8,2.8,2.2L336.7,329.5z"/>
		<path class="st0" d="M381.4,334.7l-0.8,1.1l0.3,0.3l-0.9,1.7l-0.6-0.1l-1.6,2.9l-0.4,3l-0.6,2.1c-0.7,2.7-1,5.1-1.7,7.8l0.3,0.3
			l-0.1,0.6l-0.6-0.1c-0.4,0.9-0.9,2.3-1.4,3.2l-0.7,0.5c-0.8,1.1-0.9,2.3-1.4,3.8l0.2,1l-0.2,1.8l0.3,0.3
			c2.7-5.8,5.4-12.3,7.2-18.5l-0.3-0.3l0.7-2.7l-0.2-1l0.4-0.9l0.3,0.3l0.6-2.1c0.5-1.5,0.8-3.3,1.6-5L381.4,334.7z"/>
		<polygon class="st0" points="372.2,346.1 372.8,344 372.7,342.5 372.1,341.8 372.3,340.6 372.1,337.5 371.7,335.5 371.7,333.4 
			372.3,333.5 373.8,331.8 373.7,330.2 375.3,330.1 375.3,329.5 374.7,329.5 373.9,329 373.2,329.6 372.3,329.1 371.1,329 
			370.5,331 370.7,332 371.6,332.4 371.1,333.3 369.9,333.1 368,333.5 367.8,332.5 368.6,331.4 367.9,329.8 368.2,329.5 
			369.2,329.3 369,328.4 368.4,326.1 368.6,324.9 367.7,324.5 366.9,325.6 365.2,326.9 364.8,327.8 364.4,328.1 364.2,327.7 
			362.5,330.6 361.5,331.4 360,333 359.8,334.8 359.6,336.1 360,338 361.8,340.4 364.1,339.8 365.3,339.9 366.9,341.4 367.4,344.8 
			368,347.1 369.2,347.3 369.7,348 371.4,347.3 		"/>
		<polygon class="st0" points="227.6,120.1 231.8,119.1 232.8,118.3 235.6,120.6 235.7,120.6 238.5,122.2 241.2,122.9 243.1,122.5 
			245,121.5 246.2,120.1 250,121.6 252.2,121 254.9,120.7 241.2,103 239.3,102.5 235.6,102 236.1,103.3 233.6,103.6 231.1,103.2 
			232.5,105 232.2,106.8 231.8,107.7 230.7,108.5 230.8,110 230.6,110.8 230.3,111.5 231.3,113.5 231.7,114.8 229.6,114.8 
			226.7,115.3 223.8,116.5 222.2,118.7 224,119.6 		"/>
	</g>
	<path class="st1" d="M388.8,269.2c-4.4-63.1-41.4-122.6-97.1-154.3l-0.7,0.5l-1.2-0.2l-0.9-0.4l0.1-0.6l0.3-0.3l-0.3-0.3
		c-4.9-2.8-10.1-5.4-15.7-7.7l-1,0.2c-1.5-0.5-3-1-4.8-1.3l-1,0.2l-1,0.2l-1.5-0.5l-0.8-1l-1,0.2l-1.1-0.8l0.1-0.6l0.7-0.5l0.4-0.9
		l-0.3-0.3c-0.6-0.1-0.9-0.4-1.2-0.2l0.3,0.3l0.3,0.3l-0.6-0.1l-1.6,0.1l0.5,0.7l-0.7,0.5l0.8,1l0.2,1l1.8,0.2l0.5,0.7l-0.4,0.9
		l-2.7-0.7l2.6,1.3l0.3,0.3l3,1l1.3-0.4l0.7-0.5l3,1l2.3,1.5l-0.1,0.6l-1,0.2l-2.8-0.1l-1.7-0.9l0.4,1.3l-2.7-0.7l2.9,1.6l-1.3,0.4
		l-2.3-0.9l-1.3,0.4l2.6,1.3l2.6,1.3l3.3,0.8l0.4,1.3l0.4,1.3l-0.4,0.9l-1.2-0.2l-2-1.2l-1.3,0.4l-1.5-0.5l-2.3-0.9l-1.3-1.7
		l0.4-0.9l-1.5-0.5l-2.9-1.6l-1.5-0.5l-2.6-1.3l-1-1.4l-1.7-0.9l-1.8-0.2l-0.8-1l-2.9-1.6l-3.8-1.4l-0.8-0.2l13.7,17.7l1.4-0.1
		l1.1,0.8l0.6,2.2l0.4,1.3l1.4,1.1l-0.1,0.9l3.5,4.6l-0.3-1.4l0.2-1.8l0.9,0.4c0.2-1.2,0.3-2.4,0.2-3.4l-0.6-0.1l-2.6-3.5l0.4-0.9
		l2.3,0.9l1.6,2.1l1.8,2.4l0.7-0.5l1.5,0.5l3.5,1.7l1-0.2l0.7-0.5l-0.1-1.6l-0.6-2.2l1.1,0.8l1-0.8l-0.5-0.7l0.4-0.9l-1.1-0.8
		l-1.6-2.1l-1.4-3.3l-0.4-1.9l-0.4-1.3l0.7-0.5l2,1.2l-0.8-1l2.7,0.7l2.9,1.6l1.4,1.1l1.8,2.4l-2-1.2l-1.6,0.1l2.6,1.3l2.4,2.5
		l-1.6,0.7l-2.1-0.6l2.2,2.2l1.4,1.1l0,2.2l-0.2,1.2l-1.2-0.2l1.9,1.8l-1,0.8l0.9,2.6l-0.4,0.9l-1.4,1l-2.8-2.2l0.5,2.9l1,2
		l-0.9,1.7l1.2,2.3l-1,0.8l-4.3-2.1l-0.1-1.6l1.2-2l-1.3-1.7l-1.8-0.2l-0.5,1.5l0.4,1.9l-0.1,0.6l-2.9,0.5l-1.6-0.5l15.7,20.3
		l0.2-0.3l0.8-1.1l1.6-0.7l0.7-2.7l1.8,0.2l0.2-1.2l3.6,1.1l2.2,2.2l1.2,0.2l1.8,0.2c-1.1-0.8-1.7-1.5-2.8-2.2l-1.4-1.1l-0.4-1.9
		l1.6-0.1l1.5,0.5l0.8,1l1.5,2.7c-0.2-1-0.3-2.5-0.5-3.5l-1-1.4l-0.2-1l3,1l0.4-0.9c0.4-0.9,1.5-1.7,1.9-2.5l0.4-0.9l1-0.2l-0.5-2.9
		c-1.5-2.7-3.3-5.1-5.2-7.5l-0.2-1l0.4-0.9l2.4,2.5l1.6,2.1l-1.9-4l-0.4-1.9l0.9,0.4c2.2,2.2,4.3,4.9,6.5,7.1l0.9,0.4l-1-2l1.4,1.1
		l3.6,3.3l1,1.4l0.6,0.1c2.2,2.2,4.3,4.9,5.8,7.6l0.2,1l2.8,2.2l1,2l0.8,1l1,2l-0.6-2.2l0.6,0.1l3.3,2.9l2.4,3.1l1.4,1.1
		c2.6,3.5,5.2,6.9,7.6,10c1,2,2.5,4.7,3.8,6.4l-1.7-1.5c-2.1-2.8-4.5-5.9-6.9-8.4l-0.1,0.6l2.6,3.5l1.8,3l1.7,1.5l0.4,1.3l-1.5-0.5
		l2.2,2.2c1,1.4,2.7,2.8,3.8,4.2l2.4,3.1l0.2,1l-3.7-2.7l-0.6-0.1l-2.7-2.8l1.8,2.4l-1.8-0.2l-1.2-0.2l-1.1,1.4l0.6,2.2L339,190
		l-1.7-1.5l1.1,2.9L338,193l-1-1.4l0.5,2.9l-2.1-2.8l0.6,2.2l-0.6-0.1l-1.7-1.5l-1.3-1.7l0.3,2.5l-0.7,0.5l-1.4-3.3l-0.9-0.4l1,2
		l0.9,2.6l-0.5,1.5l-2.2-2.2c-0.4-1.3-0.5-2.9-1-4.2l-0.5,1.5l-2-1.2c1.6,2.1,2.9,3.8,4.5,5.9c-3.8-1.4-6.3-3.3-8.9-5.2l-4.1-4
		l-1.3-1.7l-2-1.2l-3.6-1.1l-3.7-2.7l-0.8-1c-1.4-1.1-2.7-2.8-4.1-4l-2.3-0.9l-1.3,0.4l-1.5-0.2l24.6,31.8c-0.4-0.6-0.8-1.3-1.2-2
		l1.7,0.9l-1.9-4l2.4,2.5l0.3-0.3l-2.3-3.7l1.8,0.2l2.2,2.2l1.1,3.5l2.6,1.3l1.2,2.3l2.9,1.6l1.8,2.4l-1,0.8l0.5,2.9l-2.7-0.7
		c-1.6-1.1-2.9-2.1-4.3-3.2l30.8,39.8l0.4,0.1l2.8,0.1l2.7-1.5l3.1-2.4l1.9-0.4l2.6-0.9l1.7,0.9l1,1.4l1.1-1.4l1,1.4l1.1,0.8l1.9,4
		l1-0.2l0.9,2.6l0.7-0.5l0.9,2.6l1.6,2.1l2.1,4.9l0.4,1.9l0,2.2l-0.8,1.1l-1,0.2c-0.7-1.6-2-3.4-2.5-4.7l-0.6-0.1l0.8,3.2l-0.3,4.6
		l0.7,1.6l0.4,1.3l0.5-1.5l-0.4-1.9l0.4-0.9l1.4,3.3l0.3-0.3l-0.3-2.5l1.2-2l0.5,0.7l0.4,1.3l0.2-1.8l-0.4-1.9l0.2-1.8l-0.6-2.2
		l1.3,1.7l0.4,1.9l-0.6-0.1l0.1,1.6l0.4,1.3l0.3-0.3l0-2.2L388.8,269.2z M260.2,114.9l-0.3,0.3l-0.2,1.2l-0.2,1.2l-1.2-0.2l0.8,1
		l-0.4,0.9l-1.9-1.8l-0.4-1.9l0.7-0.5l-2-1.2l-2.5-1.9l1.6-0.1l-1-1.4l1.9,1.8c1.8,0.2,3.3,0.8,5.4,1.4l0.2,1l-1.2-0.2L260.2,114.9z
		 M293.7,118.9l1.1,0.8l-0.8-1l0.6,0.1l1.2,0.2c0.9,0.4,1.4,1.1,2.3,1.5l0.5,0.7l0.6,0.1l0.8,1l-1.3,0.4l-0.1,0.6l0.2,1l-1.2-0.2
		l-0.3,0.3l-1.4-1.1l-2.8-2.2l-0.8-1l-0.4-1.3l1-0.2L293.7,118.9z M290.6,116.3l1.1,0.8l0.3,0.3l-0.6-0.1l-1.1-0.8l-0.5-0.7
		L290.6,116.3z M272.1,109.1l-1.7-1.5l0.1-0.6l1-0.2l1.9-0.4l0.9,0.4l0.2,1l1.8,0.2l1.4,1.1l-0.3,0.3l0.8,1l-0.6-0.1l-1.7-0.9
		l-0.7,0.5L272.1,109.1z M277.4,113.3l-0.8-1L274,111l-0.5-0.7l2.4,0.3l1.5,0.5l1.1,0.8l1.1,0.8l0.4,1.3l0.2,1L277.4,113.3z
		 M281.3,111.9l-0.8-1l0.3-0.3l1.7,0.9l-0.8-1l2.3,0.9l0.3,0.3l1.4,1.1l-0.1,0.6l0.3,0.3l-1.2-0.2l-1.5-0.5L281.3,111.9z
		 M289.4,125.4l-0.9-0.4l-1.1-0.8l-1.3-1.7l-0.5-0.7l-1.8-2.4l-1-1.4l-0.2-1l-0.1-1.6l1.5,0.5l1.5,0.5l0.7-0.5l-0.4-1.3l0.3-0.3
		l1.1,0.8l0.4,1.3l-0.3,0.3l0.8,1l-0.3,0.3l-1.1-0.8l-0.1,0.6l-0.3,0.3c0.5,0.7,0.4,1.3,1,2l1,1.4l1.3,1.7l0.4,1.3L289.4,125.4z
		 M316.1,144.8l-2.2-2.2l-1.6-2.1l-1.1-0.8l1.3,1.7c-1.4-1.1-3.1-2.6-4.1-4l-2.8-2.2l-1.3-1.7l-0.9-0.4l-1.8-2.4l0.2,1l-1.1-0.8
		l-1,0.2l-1.4-1.1l-1.7-1.5l-1.1-0.8l-1.7-1.5l-0.6-0.1l1,1.4l-0.1,0.6l-3.1-2.6l-0.6-2.2l-1.8-2.4l-0.2-1l-0.4-1.3l1.2,0.2l1.3,1.7
		l1.8,0.2l0.3,0.3l0.1,1.6l1-0.2l-0.2-1l1.4,1.1l1.3,1.7l0.9,0.4l0.7-0.5l1.2,0.2l1,2l0.3,0.3l1.7,1.5l-0.4-1.3l-1.2-2.3l0.1-0.6
		l0.6,0.1l0.3-0.3l0.6,0.1l0.8,1l0.5,0.7l1,1.4l1.4,1.1l0.5,0.7l-0.3,0.3l1.4,1.1c1,1.4,2.1,2.8,3.4,4.5l1.6,2.1
		c1.2,2.3,2.8,4.4,4,6.7l0.4,1.3L316.1,144.8z"/>
	<path class="st1" d="M286.2,455.9l-1.3-5.6c-0.6,0.2-1.2,0.4-1.8,0.6l-1.3,0.4l-1,0.2l-1.6,0.1l-1.3,0.4l-0.6-0.1l-2,1l-1.3,0.4
		l-2,1l-1.6,0.1l-3.9,1.3l-1.6,0.7l-0.4,0.9l-0.7,0.5l-2.2,0.6l-0.7,0.5l-1.3,0.4l-1.4,1l-2.7,1.5l-0.1,0.6l-1,0.8
		c-3.3,1.4-6.8,2.5-10.1,3.9l-2.2,0.6c-1.6,0.1-3.2,0.8-4.8,0.9l-2.5,0.3c-1.5-0.5-3-0.4-4.5-0.9l-4.3,0l-0.5-0.7l-2.8-0.1l-1.2-0.2
		l-2.2,0.6l-2,1l-1,0.4l-0.2,0.1l-1,0.2l0.3,0.3l-2.9,0.5l-1.6,0.1l-0.3,0.3l-1.6,0.1l-1.2-0.2c-1.5-0.5-3-1-4.4-1.5l-1.8-0.2
		l-1.3,0.4l0.3,0.3c-2.2,0-4.3,0-6.6,0.6l-1.6,0.1c-0.9-0.4-1.8-0.2-2.7-0.7c-2.1-0.6-4.3-0.6-6.4-0.6c-2.1-0.6-4.5-0.9-6.6-1.5
		l-2.1-0.6l-2.3-0.9l-0.7-1.6l-1,0.2l-0.2-1l-0.9-0.4l-0.4-1.3l-1.1-0.8l-0.3-0.3l-2.6-1.3l-1.4-1.1l-1.7-0.9l-0.5-0.7l0.7-0.5
		l-0.3-0.3l0.7-0.5l-1,0.2l0.3-0.3l1.6-0.1l1.6-0.7l0.9,0.4l1.9-0.4c2.1-1.6,4.1-2.5,6.1-4.1l1.1-1.4l1.4-1l2.6-0.9l1.6-0.7l3.6-1.7
		l3.2-0.8l1.3-0.4l0.4-0.9l1.5-1.7c1.4-1,2.8-2.1,3.8-2.9l2.1-3.7l2-1l1.6-0.7l2.6-0.9l3.1-0.2l1.3-0.4l2.9-0.5l1.6-0.1l1.9,0l0.9,0
		l1.6-0.1l2.2-0.6l1.6-0.7l0.4-0.9c1-0.8,1.8-1.9,2.5-2.4l1-0.2l1.6-0.1c1.4-1,2.5-2.4,3.5-3.2l0.9-1.7l0.6,0.1
		c0.4-0.9,1.5-1.7,2.5-2.4l1.4-3.2l1.1-3.6l1.3-2.6l1.6-2.9l1-0.8l1.2,0.2c1.6-0.7,2.9-1.1,4.8-1.5l0.1-0.6l3.9-1.3l2.3-1.2l1.1-3.6
		l-0.4-1.3l0.8-1.1l-0.2-1l0.7-0.5l-2.9-1.6L250,391l-1.2-0.2l-1.3-1.7l0.7-2.7l1.2-2l0.4-3c-1-1.4-2.4-2.5-3.2-3.5l-1.9-1.8
		l-2.3-1.5l-4.6-2.5l-2.1-0.6l-2.9-1.6l-1.1-2.9l-0.8-1l-1-2l-1.3-1.7l-3.1-2.6c-1.7-0.9-3.5-1.7-5.5-2.9l-0.3-0.3l-0.5-0.7
		l-0.4-4.1l0.2-4l-0.5-3.5l0.1-2.8l-0.2-1l-0.5-2.9l0.3-2.4l0.8-1.1l1.5-1.7l0.6-2.1l0.6-2.1l-0.2-1l-0.2-1l0.8-1.1l0.4-0.9l-0.2-1
		l0-2.2l-0.8-1l0.2-1.2l0.3-0.3l0.2-1.2c0.4-0.9,1.5-1.7,1.9-2.5l1.3-0.4l1.3-2.6l0-2.2l1.5,0.5l2.8,0.1l1.9-0.4l1.1-1.4l1.9-0.4
		l2.7-1.5l1.7-3.5l1.1-1.4l1.6-0.7l0.5-1.5l0-2.2c0.7-0.5,1.4-1,2.4-1.8l1.5,0.5l0.1,0l-38.1-158.2c-0.4-0.1-0.8-0.2-1.3-0.3
		l-1.6,0.7l-1,0.8l0.5,0.7l0.7-0.5l-0.4,0.9l-1,0.2l-1.4-1.1l-0.5-0.7l-1.4-1.1c-0.5-0.7-1-1.4-1.3-1.7l-2-1.2l2.4,2.5l-0.1,0.6
		l-2.4-2.5l-0.8-1l0.3-0.3l-1.2-0.2l0.3,0.3l-2.5,0.3l-1.9-0.4l-1.4-0.3l0.7-0.5l-0.3-0.3l0.4-0.9l-1.4,1l-0.1,0.6l-1,0.2
		c-1.5-0.5-3-0.4-4.3-0.6l2.2,0l0.5-1.5l2.2-0.6l-1.6,0.1l-1.3,0.4l-0.4-1.3l-0.2,1.2l-2.6,0.9l-0.1,0.6l-0.7,0.5l-2.9,1.1l-3-0.4
		l-2.3-1.5l-2.7-0.7l-0.8-1l-1,0.2l-1,0.2l-3.2-1.4l-2.1-0.6l-2.4-0.3l-2.2,0.6l-2,1l-2.1,1.6l-1.5,1.7l-1.3,0.4l-2.8,2.1
		c-1.3,0.4-2,1-3.3,1.4l-1.9,0.4l-0.9-0.4l-0.2-1l1-0.8l0.4-0.9c1.1-1.4,2.5-2.4,3.6-3.8l1-0.8l2.2-0.6l1.4-1l1.5-2.3l0.1-0.6
		l-2.3-1.5l-0.3-0.3l1-0.8l0.2-1.2l-1.3-1.7l-0.4-1.3l-0.8-1l-0.9-0.4l-0.7,0.5l-1.3,0.4l-0.3,0.3l-0.6-0.1l0.2-1.2l-0.9-0.4
		l-0.4-1.3l0.8-1.1l-0.8-1l0.2-1.2l-0.5-0.7l-1.1-0.8l-3-0.4l-1.7-0.9l-2.2,0l-1.6,0.1c-1.3,0.4-2.2,0.6-3.3,1.4l-1,0.8l-2.9,0.5
		l-2.2,0.6c-1.6,0.7-3.6,1.7-5.5,2l-1.4,1l-1.4,1l-2.3,1.2l-1.8,1.9l-1.4,1l-1.1,1.4l-0.2,1.8l-0.8,1.1l1.2,0.2l0.8,1
		c0.9,0.4,1.4,1.1,2.3,1.5l1.8,0.2l1.9-0.4l2.6-0.9l1-0.2l1.5,0.5l1.4,1.1l0.7,1.6l0.8,1l-0.4,0.9l-1.6,0.7l-2.1-0.6l-1.9,0.4
		l-0.1,0.6c-1.3,0.4-2.6,0.9-3.9,1.3l0.4-0.9l-0.3-0.3l-0.3,0.3l0.3,0.3l-0.7,0.5l-1.3,0.4l-0.3,0.3l-1.3,0.4l-0.3,0.3l-1.6,0.7
		l-1,0.2l-0.3-0.3l-1,0.2l-0.4,0.9l0.6,0.1c-0.3,0.3-0.1,0.6,0.2,1l0.6,0.1l0.3,0.3l-0.3,0.3l0.3,0.3l0.2,1l0.5,0.7l0.9,0.4l0.6,0.1
		l-0.1,0.6l-0.1,0.6l0.3,0.3l0.6,0.1l0.2,1l0.3,0.3l-0.4,0.9l-0.4,0.9l0.2,1l-0.4,0.9l-0.3,0.3l-0.7,0.5l-1,0.8l-1,0.2l-1.3,0.4
		l-1,0.8l-0.7,0.5l-1,0.8l-0.6-0.1L104,153l-0.7,0.5l-1,0.2l-0.7,0.5l-0.1,0.6l-1.1,1.4c-0.5,1.5-1.4,3.2-1.9,4.7l-0.7,0.5l0.2,1
		l0.3-0.3L98,163l0.8,1l1.2,0.2l1.1,0.8l1.2,0.2l0.4,1.3l-0.3,0.3l0.4,1.3l-0.2,1.2l-0.2,1.2l-0.2,1.2l0.8,1l2.8,0.1l0.9,0.4l1-0.8
		l2.3-1.2l1.8,0.2l1,1.4l1-0.2l0.7,1.6c1.2,0.2,2.7,0.7,3.6,1.1l1.8,0.2l0.2,1l-0.4,0.9l-1.3,0.4l-0.7,0.5l-1.4-1.1l-0.9,1.7l-1.4,1
		l-2.2,0l-1.5,2.3l0.8,1l2.3-1.2l0.5-1.5l2.1-1.6l3.1,2l1.1-1.4l1.2,0.2l-1.5,2.3l1,1.4l-0.7,2.7l-1,0.8l1.6,2.1l1.8,2.4l-0.3,2.4
		l1,2l1.7,0.9l0.7-0.5c1.3,1.7,2.9,3.8,4.2,5.5l-2.3-1.5l-0.9,1.7l1,2l-0.1,2.8l-1.8,1.9l1,1.4c-0.2,1.2,0.3,2.5,0.1,3.7l-0.7,2.7
		l-1.4,1l0.8,1c-0.2,1.2-0.7,2.7-0.8,3.9l1.4,3.3l0.6,0.1l1.6,2.1l1.4,3.3c0.4,1.3,0.6,2.2,1.1,3.5l-0.3,4.6l-0.8,1.1l0.5,0.7
		l-0.9,1.7l-3.4,4.8l0.7,1.6l-1.7,1.3l-3.4-0.2l-0.2,1.2l2.7,5l-2.2,2.2l3,0.4c1.1,2.9,2.2,6.5,3,9.7l-0.3,2.4l-1.6,0.7l3.1,2.6
		l2.6,6.2l2.9,3.8l0.8,5.4l-0.1,5.5l0.9,2.6l1.8,2.4l0.1,1.6c-1.5,1.7-2.3,3.4-3.4,4.8l-4.9,2.1l-3.1,0.2l-6.1-0.8l-3.8,0.7
		l-3.4-0.2l-0.5-0.7l-1.9,0.4l-4.2,3.8c-2,1-3.7,2.3-5.4,3l-1.6,0.1l-3.1,2.4l-4.3,0l-2.1,1.6l-2.3-0.9l-1.6,0.7
		c-0.5-0.7-1.3-1.7-1.8-2.4l-3.3-2.9l-2.1-0.6l-2.5-1.9l-3.6-1.1l-3.1,0.2l-1.4,1l-0.5,1.5l-2.1,1.6l-0.9-0.4l-2.1-0.6l-4.5,1.2
		l-2.4-0.3l-1.8-0.2l-2,1l-1.8-0.2l-1.3,0.4l-2.3-0.9l-0.7-1.6l-0.8-1l-0.9-2.6l-1-1.4l0-2.2l-0.7,0.5l0.6,4.4l-1.1,1.4l0.4,1.9
		L42,315l-2.9,0.5l-2.3-1.5l-3-3.2l-1.2-2.3l-0.2,1.8l-1.1,1.4l-0.2,1.2l-1.2-0.2l-1-1.4l-0.9-2.6l-0.6-0.1l-0.7,2.7l0.4,1.9
		l0.9,0.4l0.1,1.6l-1.1-0.8l-1.6,0.1l-1.2,2l-0.4,0.9l-0.7-1.6l-1.2-0.2l-0.8,1.1l0.5,2.9l1,2l-0.9,1.7l-1.6,0.1l-1.2,2l-0.9-0.4
		l-0.7,0.5l-0.1,2.8l0.6,2.2l-0.5-0.7l-0.8-1l-0.6-0.1l-0.9-0.4l-0.2,1.8l-0.3-0.3l-0.5-1l0.7,1.9l0.7-0.5l0.2-1.2l0.9,0.4l0.4,1.3
		c0.4,1.3,0.3,2.5,0.4,4.1l1.1,2.9l1.2,2.3l-0.7,0.5l-0.7-1.6l-0.7-1.6l-0.3,0.3l-0.9-0.4l-0.7-1.6l-0.2-1l-0.7-1.6
		c-0.7-1.6-1.1-3.5-1.8-5.2l-0.6-4.4l0.2,0.6c-0.2-0.7-0.4-1.3-0.7-1.9l0-2.2l0.2-1.2l0-2.2l0.6-4.3l0.6-2.1l1.3-0.4l-1.1-2.9l1.4-1
		l1.1-3.6l0.9,2.6l1.8-4.1l-0.7-1.6l-1.3,2.6l-0.1-1.6c0.9-2.3,1.9-4.7,3.2-7.3l1-0.8l0.4-3l1-3l0.5,0.7l2.2-2.8l2.2-2.8l2.2-2.8
		l1.4-3.8l1.5-1.7l1.4-3.2l2.4-1.8l2.7-4.3c2.6-3.1,5.2-6.1,7.1-9.2c1.9-2.5,3.2-5.1,4.8-8l-0.5-3.5l0.8-1.1l-1-6.3l-0.4-6.2
		l0.1-2.8l1-3l0.7-0.5c1.8-6.3,4.1-11.8,6.7-17.6l0.2-1.8l0.9-2.3l0.4-3l0-2.2l1.3-0.4l2.9-3.3l2-1l2.2,0l2.2-0.6L71,189l-1.6,0.1
		L70,187l1-0.2l1.9-2.5l0.9,0.4l1.7-1.3l2.2-0.6l0.8-1.1l1.1,0.8l1.8,0.2l0.4-0.9l0.5,0.7l1.4-1l1.3-0.4l0.8,1
		c1.3-0.4,2.9-0.5,3.8-0.7l0.2-1.2l1.6-0.7l2.2-2.2l1-0.2l2.2-2.2l0.9-1.7l0.2-1.2l1.1-1.4l1-0.2l0.1-0.6l0.8-1.1l-0.1-1.6l-0.5-0.7
		l-1.3,0.4l-1.2-0.2l-0.3-0.3l-1,0.2l-0.5,1.5l-0.6-0.1l-0.6-0.1l-0.5-0.7l1.5-1.7l-0.6-0.1l-0.2-1l0.8-1.1l-0.2-1l0.1-0.6
		c-0.3-0.3-0.3-0.3-0.5-0.7l-0.7,0.5l0.1-0.6l-0.1-1.6l0.4-0.9l0.6,0.1l0.7-0.5l0.4-0.9l0.2-1.2l-0.2-1l0.7-0.5l0.4-0.9l-0.7,0.5
		l-1,0.2l0.1-0.6l0.1-0.6l0.4-0.9l0.7-0.5l1-0.2l0.1-0.6l0.6,0.1c0.4-0.9,0.9-1.7,1.3-2.6l0.8-1.1l0.5-1.5l0.9-1.7l0.6,0.1l-0.1,0.6
		l0.3-0.3l0.4-0.9l0.1-0.6l-1,0.2l-0.8-1l0.4-0.9l-0.2-1l-0.2-1l0.4-0.9l0.2-1.2l-0.5-0.7l0.2-1.2l0.5-1.5l2.3-3.4l0.5-1.5l0.2-1.2
		l-0.5-0.7l-1.5-0.5l-0.5-0.7l0.2-1.2l0.2-1.2l0.9-1.7l0.2-1.2l0.9-1.7l1.1-1.4l0.7-0.5l-0.5-0.7l0.5-1.5l1.4-1l1.5-1.7l1.7-1.3
		l1.4-1l0.6,0.1l0.7-0.5l1-0.2l1.3-0.4l1-0.8l0.7-0.5c2.3-1.2,4.4-2.8,6.5-4.4l2-1l1-0.8l0.7-0.5c-2,0.8-3.9,1.5-5.9,2.3
		c-0.3,0.3-0.7,0.5-1.4,1l-0.3,0.3l-1,0.2C45.5,135.5-2.6,211.2,0.1,291.3c0.9,26.9,7.7,53.7,19.1,78.1c-0.1-0.3-0.2-0.8-0.5-1.3
		l-0.7-1.6l0.1-0.6l0.1-0.6l0.1-0.6c0.1-0.6-0.4-1.3-0.4-1.9l0.1-0.6l0.3-0.3l0.3-0.3l0.6,0.1l0.1-0.6l0.3-0.3l0.6,0.1l0.5,0.7
		l0.6,0.1l0.3,0.3l0.5,0.7l0.6,0.1l0.6,0.1l0.5,0.7l0.4,1.3l-0.3,0.3l-0.9-0.4l-0.3-0.3l-0.8-1l-0.5-0.7c-0.3-0.3-0.6-0.1-0.9-0.4
		l-0.3,0.3l-0.1,0.6l0.2,1l0.2,1l-0.3-0.3l-0.5-0.7l-0.3,0.3l-0.3,0.3l-0.3,0.3l-0.1,0.6l0.2,1l0.2,1c0.5,0.7,0.7,1.6,1.2,2.3
		c0.7,1.6,1.1,2.9,1.5,4.8l0.4,1.9c6.7,12.4,15,24,24.3,34.9l-0.5-0.7l0.6,0.1l0.5,0.7c1,1.4,2.2,2.2,3.6,3.3l0.9,0.4l0.9,0.4l0.8,1
		l-0.3,0.3l0.8,1l0.6,0.1l0.9,0.4l0.5,0.7l-0.3,0.3l0.8,1c0.5,0.7,1.4,1.1,2.2,2.2l0.5,0.7l-0.3,0.3c2.5,1.9,4.4,4.3,6.5,6.5
		l1.1,0.8l0.8,1c41,35.3,94.2,50.9,146.3,45.6l-1.8-0.2c0.3-0.3,0.7-0.5,1-0.8l1.3-0.4l2.8-0.5l0.1,0c1.3-0.4,2.9-0.5,4.2-1l2.5-0.3
		l0.6,0.1l1-0.2l2.5-0.3l1.9-0.4c1.6-0.7,3.9-1.3,5.8-1.7l1.9-0.4l1.9-0.4l0.6,0.1l1.2,0.2l0.6,0.1l0.3,0.3c1.6-0.1,3.1-0.2,4.4-0.6
		l1.9-0.4l1.3-0.4l-0.3,0.3C262.1,466.9,274.5,462,286.2,455.9z M131.5,135.4l-0.9-0.4l-0.2-1l1.5,0.5l1.6-0.1l0.9,0.4l1.1,0.8
		l1,1.4l0.6,0.1l0.7,1.6l1,1.4l0,2.2l-0.8,1.1l1.3,1.7c-0.2,1.8-1.1,3.6-1.4,5.4l0.5,0.7l0.1,1.6l-1,0.2l0.7,1.6l0,2.2l-1,0.2
		l-1.4-1.1l-0.4-1.3l-0.7-1.6l-2.1-2.8l2.4,0.3l0.2-1.2L135,148l0.4-0.9l1.4-1l-0.8-1l-0.4-1.9l0.2-1.2l-0.9-2.6l-0.2-1l1.2,0.2
		l-1-2l-2.1-0.6l-0.5-0.7L131.5,135.4z M142.5,172.8l-2.3-0.9l-0.1-1.6l-0.8-1l-0.5-0.7l-0.6-0.1l-0.5-0.7l0.4-0.9l-0.9-0.4
		l-2.5,0.3l0.1-0.6l0.7-0.5l-0.4-1.9l-0.8-1l-0.4-1.3l-1.1-0.8l0.2-1.2l1-0.2c0.4,1.3,0.9,2.6,1.7,3.6l1.2,0.2l0.5-1.5l1-0.8
		l-0.4-1.3l1.2,0.2l0.4,1.3l0.6,2.2l0.6,0.1l1.3,1.7l0.1,1.6l0.5,0.7l-0.8,1.1l0.8,1l-0.7,0.5l0.8,1L142.5,172.8z"/>
	<polygon class="st0" points="370,268.8 370.8,267.7 371.8,266.9 374.2,265.7 374.8,265.7 374.9,264.5 374.3,262.3 372.8,261.8 
		371.8,262.6 371.6,264.4 369.9,265.1 367.7,265.7 367.4,266.2 370.1,269.6 	"/>
	<polygon class="st0" points="268,136.7 267.6,133.3 266.7,135 266.5,135.7 268.1,137.7 	"/>
	<g>
		<path class="st2" d="M178.8,16.9c4-3.5,4.4-9.6,0.9-13.6c-3.5-4-9.6-4.4-13.6-0.9c-4,3.5-4.4,9.6-0.9,13.6
			C168.7,20,174.8,20.4,178.8,16.9z M173.1,71.6l-6.5-18.2c0.1-0.4,0.2-0.8,0.2-1.2l1.4-25.9c0.2-4.5-3.2-8.3-7.7-8.6
			c-2.8-0.2-5.4,1.1-7,3.2l0,0l-9.7,14.5c-0.9,1.4-0.9,3.3,0.1,4.6l10,14.1l-3.4-4.1l-0.1,1.3c0,0.3,0,0.6,0,0.9l-0.1,0l0.6,20.3
			l0.2,25l8.7,0.2l1.3-25.1l0-0.3l-0.1-3.9l2.2,6.1l4.9,24.2l8.4-1.4l-3.3-24.9L173.1,71.6z M152.3,37.7l8.1-12.1l-6.7,12.1l7.8,13
			L152.3,37.7z"/>
	</g>
	<g>
		<g>
			<path class="st2" d="M201.5,41.1l-19.3,8.4l-7.5-7.1l-0.2,0.3l7.6,7.1c0,0,0.1,0,0.1,0c0,0,0.1,0,0.1,0l19.4-8.5L201.5,41.1z"/>
		</g>
		<g>
			<path class="st2" d="M182,49.9l-7.6-7.1c0,0-0.1-0.1-0.1-0.2l0-1.5c0-0.1,0-0.2,0.1-0.2s0.1,0,0.2,0l7.6,7.1c0,0,0.1,0.1,0.1,0.2
				l0,1.5c0,0.1,0,0.2-0.1,0.2C182.2,50,182.2,50,182,49.9C182.1,50,182.1,50,182,49.9z M174.8,41.6l0,0.9l7.2,6.8l0-0.9L174.8,41.6
				z"/>
		</g>
		<g>
			<path class="st2" d="M201.8,41.3l0-1.5c0-0.1,0-0.1-0.1-0.2c0,0-0.1,0-0.2,0l-19.4,8.5c-0.1,0-0.1,0.1-0.1,0.2l0,1.5
				c0,0.1,0,0.1,0.1,0.2c0,0,0,0,0.1,0c0,0,0.1,0,0.1,0l19.4-8.5C201.7,41.4,201.8,41.4,201.8,41.3z M201.4,41.1l-19.1,8.3l0-1
				l19.1-8.3L201.4,41.1z"/>
		</g>
		<g>
			<path class="st2" d="M201.8,39.8c0-0.1,0-0.1-0.1-0.2l-7.6-7.1c0,0-0.1-0.1-0.2,0L174.5,41c-0.1,0-0.1,0.1-0.1,0.2
				c0,0.1,0,0.1,0.1,0.2l7.6,7.1c0,0,0.1,0,0.1,0c0,0,0.1,0,0.1,0l19.4-8.5C201.7,40,201.8,39.9,201.8,39.8z M182.2,48l-7.3-6.8
				l19-8.3l7.3,6.8L182.2,48z"/>
		</g>
		<g>
			<path class="st2" d="M177.7,40.2c0,0.1,0,0.1,0.1,0.2l6.8,6.5c0,0,0.1,0,0.1,0c0,0,0.1,0,0.1,0l13.9-6.1c0.1,0,0.1-0.1,0.1-0.2
				c0-0.1,0-0.1-0.1-0.2l-6.8-6.5c-0.1,0-0.1-0.1-0.2,0L177.8,40C177.7,40,177.7,40.1,177.7,40.2z M178.2,40.3l13.5-5.9l6.4,6.2
				l-13.5,5.9L178.2,40.3z"/>
		</g>
		<g>
			<path class="st2" d="M179.5,44.8l-0.7-0.6c0,0-0.1-0.1-0.1-0.2c0-0.1,0.1-0.1,0.1-0.2l1.3-0.6c0.1,0,0.1,0,0.2,0l0.7,0.6
				c0,0,0.1,0.1,0.1,0.2c0,0.1-0.1,0.1-0.1,0.2l-1.3,0.6C179.6,44.9,179.6,44.9,179.5,44.8C179.5,44.8,179.5,44.8,179.5,44.8z
				 M180.2,43.7l-0.9,0.4l0.3,0.3l0.9-0.4L180.2,43.7z"/>
		</g>
		<g>
			<polygon class="st2" points="197.8,37.3 197.6,37.6 195.8,35.9 196.1,35.5 			"/>
		</g>
		<g>
			<polygon class="st2" points="197.5,37.5 197.3,37.8 195.5,36 195.8,35.7 			"/>
		</g>
		<g>
			<polygon class="st2" points="197.3,37.6 197,37.9 195.3,36.2 195.5,35.8 			"/>
		</g>
		<g>
			<path class="st2" d="M193.1,34c0.1-0.3,0.4-0.5,0.7-0.4c0.4,0.1,0.6,0.3,0.5,0.7c-0.1,0.3-0.4,0.5-0.7,0.4
				C193.3,34.6,193,34.3,193.1,34z M193.5,34c0,0,0.1,0.2,0.3,0.2c0.2,0,0.3,0,0.3-0.1c0,0-0.1-0.2-0.3-0.2
				C193.6,33.9,193.5,34,193.5,34z"/>
		</g>
	</g>
	<g>
		<g>
			<line class="st3" x1="188.2" y1="51.7" x2="293.6" y2="488.9"/>
			<g>
				<polygon class="st4" points="296.9,502.7 284.4,485.2 293.4,487.9 300.2,481.4 				"/>
			</g>
		</g>
	</g>
	<g>
		<g>
			<line class="st3" x1="198.6" y1="47.2" x2="412.3" y2="323.5"/>
			<g>
				<polygon class="st4" points="420.9,334.7 402.3,323.9 411.7,322.7 415.2,314 				"/>
			</g>
		</g>
	</g>
</g>
</svg>
